# xmcd
#
# Track frame offsets:
#	150
#	19928
#	34752
#	50954
#	65068
#	80026
#	95410
#	108335
#	126642
#	141820
#	160325
#	173772
#	191659
#	207731
#	208864
#	209645
#	210434
#	211512
#	212401
#	213221
#	214084
#
# Disc length: 2860 seconds
#
# Revision: 1
# Processed by: cddbd v1.5.2PL0 Copyright (c) Steve Scherf et al.
# Submitted via: audiograbber 1.83.01
#
DISCID=530b2a15
DTITLE=Various Artist - CDX 586
DYEAR=2013
DGENRE=Country
TTITLE0=Keith Urban - Cop Car
TTITLE1=Chris Young - Who I Am With You
TTITLE2=Joel Crouse - Why God Made Love Songs
TTITLE3=Ronnie Milsap - Summer Number Seventeen
TTITLE4=Ben Wasson - Adios Ces't La Vie
TTITLE5=Denny Strickland - Honky Tonk Highway
TTITLE6=Steve Scott - I Think About You
TTITLE7=Smokey River Boys - I'm So Lonesome I Could Cry
TTITLE8=Blair Mathews - It's About Us
TTITLE9=Amy Allen - Josie Rae
TTITLE10=James Robert Webb - Long Hot Winter
TTITLE11=Adrianna Freeman - No More
TTITLE12=Hannah Belle - Preacher's Daughter
TTITLE13=Hannah Bethel - The Best In Today's Hot New Country (Liner)
TTITLE14=Seth Hopkins - Home Town Country (Liner)
TTITLE15=Seth Hopkins - Kickin' Country (Liner)
TTITLE16=Seth Hopkins - My New Single (Liner)
TTITLE17=Seth Hopkins - Super Country (Liner)
TTITLE18=Seth Hopkins - The Best In Country Music (Liner)
TTITLE19=Seth Hopkins - Today's Best Country (Liner)
TTITLE20=Seth Hopkins - Today's Hot Country Music (Liner)
EXTD=
EXTT0=
EXTT1=
EXTT2=
EXTT3=
EXTT4=
EXTT5=
EXTT6=
EXTT7=
EXTT8=
EXTT9=
EXTT10=
EXTT11=
EXTT12=
EXTT13=
EXTT14=
EXTT15=
EXTT16=
EXTT17=
EXTT18=
EXTT19=
EXTT20=
PLAYORDER=
